<?xml version="1.0" encoding="utf-8"?>
<!-- Generator: Adobe Illustrator 16.0.0, SVG Export Plug-In . SVG Version: 6.00 Build 0)  -->
<!DOCTYPE svg PUBLIC "-//W3C//DTD SVG 1.1//EN" "http://www.w3.org/Graphics/SVG/1.1/DTD/svg11.dtd">
<svg version="1.1" id="레이어_1" xmlns="http://www.w3.org/2000/svg" xmlns:xlink="http://www.w3.org/1999/xlink" x="0px"
	 y="0px" width="49.999px" height="50px" viewBox="0 0 49.999 50" enable-background="new 0 0 49.999 50" xml:space="preserve">
<g>
	<g>
		<defs>
			<path id="SVGID_1_" d="M49.999,45c0,2.762-2.237,5-5,5H5c-2.762,0-5-2.238-5-5V5c0-2.762,2.238-5,5-5h39.999c2.763,0,5,2.238,5,5
				V45z"/>
		</defs>
		<clipPath id="SVGID_2_">
			<use xlink:href="#SVGID_1_"  overflow="visible"/>
		</clipPath>
		<rect x="0.001" clip-path="url(#SVGID_2_)" fill="#007bff" width="49.999" height="50"/>
	</g>
	<g>
		<defs>
			<path id="SVGID_3_" d="M49.999,45c0,2.762-2.237,5-5,5H5c-2.762,0-5-2.238-5-5V5c0-2.762,2.238-5,5-5h39.999c2.763,0,5,2.238,5,5
				V45z"/>
		</defs>
		<clipPath id="SVGID_4_">
			<use xlink:href="#SVGID_3_"  overflow="visible"/>
		</clipPath>
		<polygon opacity="0.1" clip-path="url(#SVGID_4_)" fill="#FFFFFF" enable-background="new    " points="0.001,50 25.001,25 
			49.999,0 0.001,0 		"/>
	</g>
</g>
<path fill="#FFFFFF" d="M25,15C13.955,15,5,25.001,5,25.001s8.955,10,20,10c11.047,0,19.999-10,19.999-10S36.047,15,25,15z
	 M25,32.366c-4.068,0-7.365-3.297-7.365-7.365s3.297-7.366,7.365-7.366c4.069,0,7.366,3.298,7.366,7.366S29.07,32.366,25,32.366z"/>
<circle fill="#FFFFFF" cx="21.601" cy="21.65" r="2.4"/>
</svg>
